<?xml version="1.0" encoding="UTF-8" standalone="no"?>
<svg
   viewBox="0 0 32 32"
   fill="white"
   version="1.1"
   id="svg2"
   sodipodi:docname="cancel-white.svg"
   inkscape:version="1.4.3 (0d15f75, 2025-12-25)"
   xmlns:inkscape="http://www.inkscape.org/namespaces/inkscape"
   xmlns:sodipodi="http://sodipodi.sourceforge.net/DTD/sodipodi-0.dtd"
   xmlns="http://www.w3.org/2000/svg"
   xmlns:svg="http://www.w3.org/2000/svg">
  <sodipodi:namedview
     id="namedview2"
     pagecolor="#505050"
     bordercolor="#eeeeee"
     borderopacity="1"
     inkscape:showpageshadow="0"
     inkscape:pageopacity="0"
     inkscape:pagecheckerboard="0"
     inkscape:deskcolor="#505050"
     inkscape:zoom="25.46875"
     inkscape:cx="16"
     inkscape:cy="16"
     inkscape:window-width="1920"
     inkscape:window-height="1017"
     inkscape:window-x="-8"
     inkscape:window-y="-8"
     inkscape:window-maximized="1"
     inkscape:current-layer="svg2" />
  <defs
     id="defs1">
    <style
       id="style1">.cls-1{fill:white;stroke:#fff;stroke-linecap:round;stroke-linejoin:round;stroke-width:2px;}</style>
  </defs>
  <title
     id="title1" />
  <g
     id="cross">
    <line
       class="cls-1"
       x1="7"
       x2="25"
       y1="7"
       y2="25"
       id="line1" />
    <line
       class="cls-1"
       x1="7"
       x2="25"
       y1="25"
       y2="7"
       id="line2" />
  </g>
  <path
     style="fill:#808080;stroke-width:0.00153129"
     d="m 6.5960332,25.883186 c -0.3821381,-0.182815 -0.596476,-0.552423 -0.5591385,-0.964188 0.011419,-0.12593 0.051014,-0.289253 0.087988,-0.362938 0.036975,-0.07369 1.9601899,-2.028943 4.2738123,-4.345017 L 14.60528,16 10.398695,11.788957 C 8.0850729,9.4728834 6.1614677,7.516872 6.1240167,7.442265 6.0865657,7.367658 6.0472988,7.1991648 6.036757,7.0678357 5.9888368,6.4708515 6.4832914,5.9826962 7.0810018,6.0368947 c 0.1259304,0.011419 0.2892526,0.051014 0.3629383,0.087988 0.073686,0.036975 2.0289433,1.9601899 4.3450169,4.2738123 L 16,14.60528 20.211043,10.398695 c 2.316074,-2.3136221 4.272085,-4.2372273 4.346692,-4.2746783 0.07461,-0.037451 0.2431,-0.076718 0.374429,-0.08726 0.596984,-0.04792 1.08514,0.4465344 1.030941,1.0442448 -0.01142,0.1259304 -0.05101,0.2892526 -0.08799,0.3629383 -0.03697,0.073686 -1.96019,2.0289433 -4.273812,4.3450172 L 17.39472,16 l 4.206585,4.211043 c 2.313622,2.316074 4.236837,4.271331 4.273812,4.345017 0.03697,0.07369 0.07657,0.237008 0.08799,0.362938 0.0542,0.597711 -0.433957,1.092165 -1.030941,1.044245 -0.131329,-0.01054 -0.299822,-0.04981 -0.374429,-0.08726 -0.07461,-0.03745 -2.030618,-1.961056 -4.346692,-4.274678 L 16,17.39472 11.788957,21.601305 c -2.3160736,2.313622 -4.2727425,4.237567 -4.3481531,4.275434 -0.075411,0.03787 -0.2520978,0.07597 -0.392638,0.08468 -0.2100231,0.01301 -0.2905395,-9.23e-4 -0.4521327,-0.07823 z"
     id="path2" />
</svg>
